<svg xmlns="http://www.w3.org/2000/svg" xmlns:xlink="http://www.w3.org/1999/xlink" viewBox="0 0 373 136.03"><defs><style>.cls-1{fill:#111020;}.cls-2{fill:url(#linear-gradient);}.cls-3{fill:url(#linear-gradient-2);}.cls-4{fill:url(#linear-gradient-3);}.cls-5{fill:url(#linear-gradient-4);}.cls-6{fill:url(#linear-gradient-5);}.cls-7{font-size:28px;font-family:TwCenMT-Regular, Tw Cen MT;letter-spacing:0.26em;}.cls-8,.cls-9{fill:#ecde86;}.cls-9{letter-spacing:0.28em;}.cls-10{fill:#cfb46d;letter-spacing:0.28em;}.cls-11{letter-spacing:0.28em;}.cls-12,.cls-13{fill:#c1a542;}.cls-12{letter-spacing:0.27em;}.cls-13{letter-spacing:0.28em;}</style><linearGradient id="linear-gradient" x1="151.75" y1="18.25" x2="184.25" y2="18.25" gradientUnits="userSpaceOnUse"><stop offset="0" stop-color="#f9ea8d"/><stop offset="1" stop-color="#e4cf7e"/></linearGradient><linearGradient id="linear-gradient-2" x1="165.08" y1="43.93" x2="183.98" y2="55.44" gradientUnits="userSpaceOnUse"><stop offset="0" stop-color="#d9cb73"/><stop offset="1" stop-color="#b79b48"/></linearGradient><linearGradient id="linear-gradient-3" x1="190" y1="18.25" x2="222.5" y2="18.25" gradientUnits="userSpaceOnUse"><stop offset="0" stop-color="#d9cb73"/><stop offset="1" stop-color="#b3934a"/></linearGradient><linearGradient id="linear-gradient-4" x1="190.72" y1="44.62" x2="208.54" y2="61.46" gradientUnits="userSpaceOnUse"><stop offset="0" stop-color="#cab059"/><stop offset="1" stop-color="#b59540"/></linearGradient><linearGradient id="linear-gradient-5" x1="91.16" y1="120.79" x2="305.52" y2="120.79" gradientUnits="userSpaceOnUse"><stop offset="0" stop-color="#8240ff"/><stop offset="1" stop-color="#b59540"/></linearGradient></defs><title>banner-logo</title><g id="Layer_2" data-name="Layer 2"><g id="Layer_3" data-name="Layer 3"><rect class="cls-1" width="373" height="136"/></g><g id="Layer_2-2" data-name="Layer 2"><polygon class="cls-2" points="151.75 3 158.25 3 158.25 15.5 184.25 15.5 184.25 21.5 158.25 21.5 158.25 33.5 151.75 33.5 151.75 3"/><polygon class="cls-3" points="184.25 27 184.25 80.25 177.75 80.25 177.75 33.5 163.75 33.5 163.75 27 184.25 27"/><polygon class="cls-4" points="222.5 3 216 3 216 15.5 190 15.5 190 21.5 216 21.5 216 33.5 222.5 33.5 222.5 3"/><polygon class="cls-5" points="190 27 190 80.25 196.5 80.25 196.5 33.5 210.5 33.5 210.5 27 190 27"/><path class="cls-6" d="M96.92,110.83h10.65v2.38h-4.16v15h-2.35v-15H96.92Z"/><path class="cls-6" d="M124.05,110.16l8.23,18.09h-2.5l-2-4.46h-7.39l-2,4.46H115.9Zm0,5.44-2.79,6.21h5.6Z"/><path class="cls-6" d="M153,112.78,151,114.32a7.78,7.78,0,0,0-1.38-1.18,4.16,4.16,0,0,0-3.88.19,1.75,1.75,0,0,0-.79,1.49,1.83,1.83,0,0,0,.69,1.4,9.83,9.83,0,0,0,2.38,1.32,17,17,0,0,1,2.61,1.35,6.66,6.66,0,0,1,1.54,1.37,5.55,5.55,0,0,1,.89,1.58,5.22,5.22,0,0,1,.29,1.77,4.93,4.93,0,0,1-1.58,3.7,5.27,5.27,0,0,1-3.82,1.53,6.46,6.46,0,0,1-3.86-1.2,7.49,7.49,0,0,1-2.58-3.59l2.38-.67c.87,2,2.19,2.94,4,2.94a3.08,3.08,0,0,0,2.16-.77,2.51,2.51,0,0,0,.86-2,2.66,2.66,0,0,0-.45-1.42,4,4,0,0,0-1.12-1.18,12.2,12.2,0,0,0-2.13-1.06,15.48,15.48,0,0,1-2.26-1.1,5.76,5.76,0,0,1-1.36-1.19,5,5,0,0,1-.85-1.37,4.19,4.19,0,0,1-.26-1.46,4.08,4.08,0,0,1,1.5-3.19,5.34,5.34,0,0,1,3.65-1.32,7.43,7.43,0,0,1,2.89.61A6,6,0,0,1,153,112.78Z"/><path class="cls-6" d="M163.13,110.83h10.66v2.38h-4.16v15h-2.35v-15h-4.15Z"/><path class="cls-6" d="M184.14,110.83h9.65v2.38h-7.3v4.35h7.3v2.35h-7.3v6h7.3v2.35h-9.65Z"/><path class="cls-6" d="M220.4,110.83h2.35V125.9h5.67v2.35h-8Z"/><path class="cls-6" d="M238.34,110.86h2.38v10.71a5.38,5.38,0,0,0,1.14,3.67,4.07,4.07,0,0,0,3.24,1.3,4.31,4.31,0,0,0,3.23-1.19,4.66,4.66,0,0,0,1.16-3.37V110.86h2.37v11a7.1,7.1,0,0,1-1.82,5.12,6.43,6.43,0,0,1-4.86,1.91,6.58,6.58,0,0,1-5-1.94,8,8,0,0,1-1.87-5.73Z"/><path class="cls-6" d="M262.54,110.83h2.62l3.89,6.35,3.85-6.35h2.65l-5.17,8.55,5.32,8.87h-2.63l-4-6.69L265,128.25h-2.66l5.39-8.88Z"/><text class="cls-7" transform="translate(96.16 128.25)"><tspan class="cls-8">T</tspan><tspan class="cls-9" x="19.57" y="0">AST</tspan><tspan class="cls-10" x="86.35" y="0">E</tspan><tspan class="cls-11" x="106.48" y="0"> </tspan><tspan class="cls-12" x="122.07" y="0">L</tspan><tspan class="cls-13" x="140.44" y="0">UX</tspan></text></g></g></svg>