<svg xmlns="http://www.w3.org/2000/svg" xmlns:xlink="http://www.w3.org/1999/xlink" viewBox="0 0 373 136.03"><defs><style>.cls-1{fill:#111020;}.cls-2{fill:url(#linear-gradient);}.cls-3{fill:url(#linear-gradient-2);}.cls-4{fill:url(#linear-gradient-3);}.cls-5{fill:url(#linear-gradient-4);}.cls-6{fill:url(#linear-gradient-5);}.cls-7{fill:url(#linear-gradient-6);}.cls-8{fill:url(#linear-gradient-7);}.cls-9{fill:url(#linear-gradient-9);}.cls-10{fill:url(#linear-gradient-10);}.cls-11{fill:url(#linear-gradient-11);}.cls-12,.cls-13,.cls-14,.cls-15,.cls-16,.cls-17,.cls-18{isolation:isolate;}.cls-13,.cls-14,.cls-15,.cls-16,.cls-17,.cls-18{font-size:28px;font-family:TwCenMT-Regular, Tw Cen MT;}.cls-13,.cls-14{fill:#ecde86;}.cls-13{letter-spacing:0.26em;}.cls-14,.cls-15,.cls-16,.cls-18{letter-spacing:0.28em;}.cls-15{fill:#cfb46d;}.cls-17,.cls-18{fill:#c1a542;}.cls-17{letter-spacing:0.27em;}</style><linearGradient id="linear-gradient" x1="147.85" y1="109.75" x2="180.35" y2="109.75" gradientTransform="matrix(1, 0, 0, -1, 0, 138)" gradientUnits="userSpaceOnUse"><stop offset="0" stop-color="#f9ea8d"/><stop offset="1" stop-color="#e4cf7e"/></linearGradient><linearGradient id="linear-gradient-2" x1="161.18" y1="84.07" x2="180.08" y2="72.56" gradientTransform="matrix(1, 0, 0, -1, 0, 138)" gradientUnits="userSpaceOnUse"><stop offset="0" stop-color="#d9cb73"/><stop offset="1" stop-color="#b79b48"/></linearGradient><linearGradient id="linear-gradient-3" x1="186.1" y1="109.75" x2="218.6" y2="109.75" gradientTransform="matrix(1, 0, 0, -1, 0, 138)" gradientUnits="userSpaceOnUse"><stop offset="0" stop-color="#d9cb73"/><stop offset="1" stop-color="#b3934a"/></linearGradient><linearGradient id="linear-gradient-4" x1="186.82" y1="83.38" x2="204.64" y2="66.54" gradientTransform="matrix(1, 0, 0, -1, 0, 138)" gradientUnits="userSpaceOnUse"><stop offset="0" stop-color="#cab059"/><stop offset="1" stop-color="#b59540"/></linearGradient><linearGradient id="linear-gradient-5" x1="87.26" y1="18.48" x2="301.62" y2="18.48" gradientTransform="matrix(1, 0, 0, -1, 0, 138)" gradientUnits="userSpaceOnUse"><stop offset="0" stop-color="#8240ff"/><stop offset="1" stop-color="#b59540"/></linearGradient><linearGradient id="linear-gradient-6" x1="87.26" y1="18.79" x2="301.62" y2="18.79" xlink:href="#linear-gradient-5"/><linearGradient id="linear-gradient-7" x1="87.26" y1="18.45" x2="301.62" y2="18.45" xlink:href="#linear-gradient-5"/><linearGradient id="linear-gradient-9" x1="87.26" y1="18.46" x2="301.62" y2="18.46" xlink:href="#linear-gradient-5"/><linearGradient id="linear-gradient-10" x1="87.26" y1="18.46" x2="301.62" y2="18.46" xlink:href="#linear-gradient-5"/><linearGradient id="linear-gradient-11" x1="87.26" y1="18.12" x2="301.62" y2="18.12" xlink:href="#linear-gradient-5"/></defs><title>Asset 1</title><g id="Layer_2" data-name="Layer 2"><g id="Layer_1-2" data-name="Layer 1"><g id="Layer_2-2" data-name="Layer 2"><g id="Layer_3" data-name="Layer 3"><rect class="cls-1" width="373" height="136"/></g><g id="Layer_2-2-2" data-name="Layer 2-2"><polygon class="cls-2" points="147.85 13 154.35 13 154.35 25.5 180.35 25.5 180.35 31.5 154.35 31.5 154.35 43.5 147.85 43.5 147.85 13"/><polygon class="cls-3" points="180.35 37 180.35 90.25 173.85 90.25 173.85 43.5 159.85 43.5 159.85 37 180.35 37"/><polygon class="cls-4" points="218.6 13 212.1 13 212.1 25.5 186.1 25.5 186.1 31.5 212.1 31.5 212.1 43.5 218.6 43.5 218.6 13"/><polygon class="cls-5" points="186.1 37 186.1 90.25 192.6 90.25 192.6 43.5 206.6 43.5 206.6 37 186.1 37"/><path class="cls-6" d="M93,110.83h10.65v2.38H99.51v15H97.16v-15H93Z"/><path class="cls-7" d="M120.15,110.16l8.23,18.09h-2.5l-2-4.46h-7.39l-2,4.46H112Zm0,5.44-2.79,6.21H123Z"/><path class="cls-8" d="M149.1,112.78l-2,1.54a7.76,7.76,0,0,0-1.38-1.18,4.16,4.16,0,0,0-3.88.19,1.75,1.75,0,0,0-.79,1.49,1.82,1.82,0,0,0,.69,1.4,9.9,9.9,0,0,0,2.38,1.32,17,17,0,0,1,2.61,1.35,6.7,6.7,0,0,1,1.54,1.37,5.6,5.6,0,0,1,.89,1.58,5.1,5.1,0,0,1,.29,1.77,4.94,4.94,0,0,1-1.58,3.7,5.24,5.24,0,0,1-3.82,1.53,6.49,6.49,0,0,1-3.86-1.2,7.5,7.5,0,0,1-2.58-3.59l2.38-.67c.87,2,2.19,2.94,4,2.94a3.06,3.06,0,0,0,2.16-.77,2.51,2.51,0,0,0,.86-2,2.65,2.65,0,0,0-.45-1.42,3.94,3.94,0,0,0-1.12-1.18,12.08,12.08,0,0,0-2.13-1.06,14.74,14.74,0,0,1-2.26-1.1,5.71,5.71,0,0,1-1.36-1.19,5,5,0,0,1-.85-1.37,4.28,4.28,0,0,1-.26-1.46,4.06,4.06,0,0,1,1.5-3.19,5.37,5.37,0,0,1,3.65-1.32,7.56,7.56,0,0,1,2.89.61A6.06,6.06,0,0,1,149.1,112.78Z"/><path class="cls-6" d="M159.23,110.83h10.66v2.38h-4.16v15h-2.35v-15h-4.15Z"/><path class="cls-9" d="M180.24,110.83h9.65v2.38h-7.3v4.35h7.3v2.35h-7.3v6h7.3v2.35h-9.65Z"/><path class="cls-10" d="M216.5,110.83h2.35V125.9h5.67v2.35h-8Z"/><path class="cls-11" d="M234.44,110.86h2.38v10.71a5.35,5.35,0,0,0,1.14,3.67,4,4,0,0,0,3.24,1.3,4.31,4.31,0,0,0,3.23-1.19,4.68,4.68,0,0,0,1.16-3.37V110.86H248v11a7.09,7.09,0,0,1-1.82,5.12,6.41,6.41,0,0,1-4.86,1.91,6.57,6.57,0,0,1-5-1.94,8,8,0,0,1-1.87-5.73Z"/><path class="cls-10" d="M258.64,110.83h2.62l3.89,6.35,3.85-6.35h2.65l-5.17,8.55,5.32,8.87h-2.63l-4-6.69-4.07,6.69h-2.66l5.39-8.88Z"/><g class="cls-12"><text class="cls-13" transform="translate(92.26 128.25)">T</text><text class="cls-14" transform="translate(111.83 128.25)">AST</text><text class="cls-15" transform="translate(178.61 128.25)">E</text><text class="cls-16" transform="translate(198.74 128.25)"> </text><text class="cls-17" transform="translate(214.33 128.25)">L</text><text class="cls-18" transform="translate(232.7 128.25)">UX</text></g></g></g></g></g></svg>