<svg xmlns="http://www.w3.org/2000/svg" xmlns:xlink="http://www.w3.org/1999/xlink" viewBox="0 0 79.33 85"><defs><style>.cls-1{fill:#111020;}.cls-2{fill:url(#linear-gradient);}.cls-3{fill:url(#linear-gradient-2);}.cls-4{fill:url(#linear-gradient-3);}.cls-5{fill:url(#linear-gradient-4);}</style><linearGradient id="linear-gradient" x1="4.29" y1="67.85" x2="36.79" y2="67.85" gradientTransform="matrix(1, 0, 0, -1, 0, 86.97)" gradientUnits="userSpaceOnUse"><stop offset="0" stop-color="#f9ea8d"/><stop offset="1" stop-color="#e4cf7e"/></linearGradient><linearGradient id="linear-gradient-2" x1="17.62" y1="42.17" x2="36.52" y2="30.66" gradientTransform="matrix(1, 0, 0, -1, 0, 86.97)" gradientUnits="userSpaceOnUse"><stop offset="0" stop-color="#d9cb73"/><stop offset="1" stop-color="#b79b48"/></linearGradient><linearGradient id="linear-gradient-3" x1="42.54" y1="67.85" x2="75.04" y2="67.85" gradientTransform="matrix(1, 0, 0, -1, 0, 86.97)" gradientUnits="userSpaceOnUse"><stop offset="0" stop-color="#d9cb73"/><stop offset="1" stop-color="#b3934a"/></linearGradient><linearGradient id="linear-gradient-4" x1="43.26" y1="41.48" x2="61.08" y2="24.64" gradientTransform="matrix(1, 0, 0, -1, 0, 86.97)" gradientUnits="userSpaceOnUse"><stop offset="0" stop-color="#cab059"/><stop offset="1" stop-color="#b59540"/></linearGradient></defs><title>Asset 1</title><g id="Layer_2" data-name="Layer 2"><g id="Layer_1-2" data-name="Layer 1"><g id="Layer_2-2" data-name="Layer 2"><g id="Layer_3" data-name="Layer 3"><rect class="cls-1" width="79.33" height="85"/></g><g id="Layer_2-2-2" data-name="Layer 2-2"><polygon class="cls-2" points="4.29 3.88 10.79 3.88 10.79 16.38 36.79 16.38 36.79 22.38 10.79 22.38 10.79 34.38 4.29 34.38 4.29 3.88"/><polygon class="cls-3" points="36.79 27.88 36.79 81.13 30.29 81.13 30.29 34.38 16.29 34.38 16.29 27.88 36.79 27.88"/><polygon class="cls-4" points="75.04 3.88 68.54 3.88 68.54 16.38 42.54 16.38 42.54 22.38 68.54 22.38 68.54 34.38 75.04 34.38 75.04 3.88"/><polygon class="cls-5" points="42.54 27.88 42.54 81.13 49.04 81.13 49.04 34.38 63.04 34.38 63.04 27.88 42.54 27.88"/></g></g></g></g></svg>